<mxfile host="app.diagrams.net" modified="2023-10-17T04:59:41.712Z" agent="Mozilla/5.0 (Windows NT 10.0; Win64; x64; rv:109.0) Gecko/20100101 Firefox/118.0" etag="FqBuEyi3ut2gMLTWfozX" version="22.0.4" type="github">
  <diagram name="Page-1" id="ZRlrtI66T5Wh0qMo6ixs">
    <mxGraphModel dx="880" dy="442" grid="1" gridSize="10" guides="1" tooltips="1" connect="1" arrows="1" fold="1" page="1" pageScale="1" pageWidth="850" pageHeight="1100" math="0" shadow="0">
      <root>
        <mxCell id="0" />
        <mxCell id="1" parent="0" />
        <mxCell id="OHCckTfAfCe0Vvi4j4fA-8" style="edgeStyle=orthogonalEdgeStyle;rounded=0;orthogonalLoop=1;jettySize=auto;html=1;exitX=0.5;exitY=1;exitDx=0;exitDy=0;exitPerimeter=0;entryX=0.5;entryY=0;entryDx=0;entryDy=0;" edge="1" parent="1" source="OHCckTfAfCe0Vvi4j4fA-1" target="OHCckTfAfCe0Vvi4j4fA-2">
          <mxGeometry relative="1" as="geometry" />
        </mxCell>
        <mxCell id="OHCckTfAfCe0Vvi4j4fA-1" value="start " style="strokeWidth=2;html=1;shape=mxgraph.flowchart.terminator;whiteSpace=wrap;" vertex="1" parent="1">
          <mxGeometry x="340" y="10" width="100" height="60" as="geometry" />
        </mxCell>
        <mxCell id="OHCckTfAfCe0Vvi4j4fA-2" value="&lt;div&gt;LA&lt;/div&gt;&lt;div&gt;a&lt;/div&gt;&lt;div&gt;t&lt;br&gt;&lt;/div&gt;" style="shape=parallelogram;html=1;strokeWidth=2;perimeter=parallelogramPerimeter;whiteSpace=wrap;rounded=1;arcSize=12;size=0.23;" vertex="1" parent="1">
          <mxGeometry x="340" y="120" width="100" height="60" as="geometry" />
        </mxCell>
        <mxCell id="OHCckTfAfCe0Vvi4j4fA-11" style="edgeStyle=orthogonalEdgeStyle;rounded=0;orthogonalLoop=1;jettySize=auto;html=1;exitX=0.5;exitY=1;exitDx=0;exitDy=0;exitPerimeter=0;entryX=0.5;entryY=0;entryDx=0;entryDy=0;" edge="1" parent="1" source="OHCckTfAfCe0Vvi4j4fA-3" target="OHCckTfAfCe0Vvi4j4fA-5">
          <mxGeometry relative="1" as="geometry" />
        </mxCell>
        <mxCell id="OHCckTfAfCe0Vvi4j4fA-3" value="la=1/2 x a x t" style="strokeWidth=2;html=1;shape=mxgraph.flowchart.decision;whiteSpace=wrap;" vertex="1" parent="1">
          <mxGeometry x="340" y="240" width="100" height="100" as="geometry" />
        </mxCell>
        <mxCell id="OHCckTfAfCe0Vvi4j4fA-12" style="edgeStyle=orthogonalEdgeStyle;rounded=0;orthogonalLoop=1;jettySize=auto;html=1;exitX=0.5;exitY=1;exitDx=0;exitDy=0;entryX=0.5;entryY=0;entryDx=0;entryDy=0;" edge="1" parent="1" source="OHCckTfAfCe0Vvi4j4fA-5" target="OHCckTfAfCe0Vvi4j4fA-6">
          <mxGeometry relative="1" as="geometry" />
        </mxCell>
        <mxCell id="OHCckTfAfCe0Vvi4j4fA-5" value="1/2 x a xt" style="rounded=1;whiteSpace=wrap;html=1;" vertex="1" parent="1">
          <mxGeometry x="330" y="390" width="120" height="60" as="geometry" />
        </mxCell>
        <mxCell id="OHCckTfAfCe0Vvi4j4fA-6" value="LA" style="shape=parallelogram;html=1;strokeWidth=2;perimeter=parallelogramPerimeter;whiteSpace=wrap;rounded=1;arcSize=12;size=0.23;" vertex="1" parent="1">
          <mxGeometry x="340" y="500" width="100" height="60" as="geometry" />
        </mxCell>
        <mxCell id="OHCckTfAfCe0Vvi4j4fA-7" value="End" style="strokeWidth=2;html=1;shape=mxgraph.flowchart.terminator;whiteSpace=wrap;" vertex="1" parent="1">
          <mxGeometry x="340" y="620" width="100" height="60" as="geometry" />
        </mxCell>
        <mxCell id="OHCckTfAfCe0Vvi4j4fA-10" style="edgeStyle=orthogonalEdgeStyle;rounded=0;orthogonalLoop=1;jettySize=auto;html=1;exitX=0.5;exitY=1;exitDx=0;exitDy=0;entryX=0.5;entryY=0;entryDx=0;entryDy=0;entryPerimeter=0;" edge="1" parent="1" source="OHCckTfAfCe0Vvi4j4fA-2" target="OHCckTfAfCe0Vvi4j4fA-3">
          <mxGeometry relative="1" as="geometry" />
        </mxCell>
        <mxCell id="OHCckTfAfCe0Vvi4j4fA-13" style="edgeStyle=orthogonalEdgeStyle;rounded=0;orthogonalLoop=1;jettySize=auto;html=1;exitX=0.5;exitY=1;exitDx=0;exitDy=0;entryX=0.5;entryY=0;entryDx=0;entryDy=0;entryPerimeter=0;" edge="1" parent="1" source="OHCckTfAfCe0Vvi4j4fA-6" target="OHCckTfAfCe0Vvi4j4fA-7">
          <mxGeometry relative="1" as="geometry" />
        </mxCell>
      </root>
    </mxGraphModel>
  </diagram>
</mxfile>
